<svg xmlns="http://www.w3.org/2000/svg" viewBox="0 0 1200 440" width="1200" height="440" role="img" aria-label="Tumor with radiating vasculature — graphical abstract"><defs>
  <pattern id="hatch" width="16" height="16" patternTransform="rotate(-45)" patternUnits="userSpaceOnUse">
    <rect width="16" height="16" fill="#ffffff"/><rect width="8" height="16" fill="#eef1f0"/>
  </pattern>
  <radialGradient id="body" cx="50%" cy="40%" r="62%">
    <stop offset="0%" stop-color="#0e7d74" stop-opacity="0.12"/>
    <stop offset="72%" stop-color="#0e7d74" stop-opacity="0.05"/>
    <stop offset="100%" stop-color="#0e7d74" stop-opacity="0.02"/>
  </radialGradient>
</defs><rect width="1200" height="440" fill="#ffffff"/><g><path d="M492.9,235.6 C348.2,261.9 251.8,309.2 109.1,340.8" fill="none" stroke="#0e7d74" stroke-width="1.61" stroke-linecap="round" opacity="0.51"/><path d="M301.0,288.2 Q284.8,303.0 277.7,325.1" fill="none" stroke="#0e7d74" stroke-width="0.96" stroke-linecap="round" opacity="0.41"/><path d="M216.5,311.3 Q211.3,325.1 190.4,345.8" fill="none" stroke="#0e7d74" stroke-width="0.96" stroke-linecap="round" opacity="0.41"/><path d="M497.7,237.4 C366.8,280.1 276.1,357.1 142.1,408.4" fill="none" stroke="#111111" stroke-width="1.24" stroke-linecap="round" opacity="0.79"/><path d="M319.9,322.9 Q299.0,321.0 281.8,318.1" fill="none" stroke="#111111" stroke-width="0.74" stroke-linecap="round" opacity="0.63"/><path d="M241.7,360.5 Q239.1,374.2 222.6,394.6" fill="none" stroke="#111111" stroke-width="0.74" stroke-linecap="round" opacity="0.63"/><path d="M505.7,246.0 C382.6,274.5 273.7,325.8 177.3,360.0" fill="none" stroke="#111111" stroke-width="1.36" stroke-linecap="round" opacity="0.47"/><path d="M341.5,303.0 Q321.2,303.8 298.1,304.9" fill="none" stroke="#111111" stroke-width="0.82" stroke-linecap="round" opacity="0.38"/><path d="M269.2,328.0 Q248.7,331.5 225.8,336.7" fill="none" stroke="#111111" stroke-width="0.82" stroke-linecap="round" opacity="0.38"/><path d="M520.3,248.8 C401.1,280.0 351.0,336.2 188.1,373.7" fill="none" stroke="#0e7d74" stroke-width="1.43" stroke-linecap="round" opacity="0.68"/><path d="M354.2,311.2 Q341.0,306.1 324.6,298.4" fill="none" stroke="#0e7d74" stroke-width="0.86" stroke-linecap="round" opacity="0.55"/><path d="M281.1,338.7 Q267.6,338.0 247.7,337.0" fill="none" stroke="#0e7d74" stroke-width="0.86" stroke-linecap="round" opacity="0.55"/><path d="M518.4,248.0 C443.6,278.8 344.8,334.2 253.8,371.2" fill="none" stroke="#111111" stroke-width="1.68" stroke-linecap="round" opacity="0.69"/><path d="M386.1,309.6 Q374.6,315.0 343.8,323.1" fill="none" stroke="#111111" stroke-width="1.01" stroke-linecap="round" opacity="0.55"/><path d="M327.9,336.7 Q313.2,331.8 284.5,324.4" fill="none" stroke="#111111" stroke-width="1.01" stroke-linecap="round" opacity="0.55"/><path d="M525.9,248.8 C456.0,287.2 361.9,356.3 281.2,402.4" fill="none" stroke="#111111" stroke-width="1.73" stroke-linecap="round" opacity="0.59"/><path d="M403.6,325.6 Q393.9,342.9 392.7,368.9" fill="none" stroke="#111111" stroke-width="1.04" stroke-linecap="round" opacity="0.47"/><path d="M349.8,359.4 Q349.4,370.5 338.1,387.2" fill="none" stroke="#111111" stroke-width="1.04" stroke-linecap="round" opacity="0.47"/><path d="M534.0,237.9 C412.6,276.0 389.7,344.5 300.4,390.2" fill="none" stroke="#0e7d74" stroke-width="1.91" stroke-linecap="round" opacity="0.64"/><path d="M417.2,314.1 Q390.0,315.7 358.2,318.0" fill="none" stroke="#0e7d74" stroke-width="1.14" stroke-linecap="round" opacity="0.51"/><path d="M365.8,347.6 Q359.5,358.3 334.8,374.4" fill="none" stroke="#0e7d74" stroke-width="1.14" stroke-linecap="round" opacity="0.51"/><path d="M551.2,235.6 C448.9,260.9 412.4,306.3 322.0,336.7" fill="none" stroke="#111111" stroke-width="1.41" stroke-linecap="round" opacity="0.66"/><path d="M436.6,286.1 Q428.4,302.3 421.3,326.4" fill="none" stroke="#111111" stroke-width="0.85" stroke-linecap="round" opacity="0.52"/><path d="M386.1,308.4 Q365.4,315.9 326.8,327.3" fill="none" stroke="#111111" stroke-width="0.85" stroke-linecap="round" opacity="0.52"/><path d="M553.1,246.8 C519.7,265.1 475.5,298.1 386.4,320.0" fill="none" stroke="#111111" stroke-width="1.84" stroke-linecap="round" opacity="0.76"/><path d="M469.8,283.4 Q449.3,292.8 434.5,306.8" fill="none" stroke="#111111" stroke-width="1.10" stroke-linecap="round" opacity="0.60"/><path d="M433.1,299.5 Q414.3,301.9 403.5,305.5" fill="none" stroke="#111111" stroke-width="1.10" stroke-linecap="round" opacity="0.60"/><path d="M556.7,235.9 C459.2,256.3 435.2,293.0 400.7,317.5" fill="none" stroke="#0e7d74" stroke-width="1.49" stroke-linecap="round" opacity="0.53"/><path d="M478.7,276.7 Q472.8,299.2 459.5,333.0" fill="none" stroke="#0e7d74" stroke-width="0.89" stroke-linecap="round" opacity="0.42"/><path d="M444.4,294.6 Q434.5,307.5 425.8,326.7" fill="none" stroke="#0e7d74" stroke-width="0.89" stroke-linecap="round" opacity="0.42"/><path d="M565.8,234.9 C520.1,273.8 504.5,343.7 465.8,390.3" fill="none" stroke="#111111" stroke-width="1.28" stroke-linecap="round" opacity="0.48"/><path d="M515.8,312.6 Q516.3,326.9 504.0,348.3" fill="none" stroke="#111111" stroke-width="0.77" stroke-linecap="round" opacity="0.38"/><path d="M493.8,346.8 Q500.6,358.3 492.9,375.6" fill="none" stroke="#111111" stroke-width="0.77" stroke-linecap="round" opacity="0.38"/><path d="M575.0,235.5 C541.6,254.3 557.4,288.1 481.9,310.6" fill="none" stroke="#111111" stroke-width="1.76" stroke-linecap="round" opacity="0.75"/><path d="M528.4,273.1 Q515.1,287.4 508.3,309.0" fill="none" stroke="#111111" stroke-width="1.05" stroke-linecap="round" opacity="0.60"/><path d="M508.0,289.6 Q494.1,294.1 462.2,301.0" fill="none" stroke="#111111" stroke-width="1.05" stroke-linecap="round" opacity="0.60"/><path d="M579.9,237.4 C585.4,274.2 575.9,340.6 532.5,384.8" fill="none" stroke="#0e7d74" stroke-width="1.79" stroke-linecap="round" opacity="0.70"/><path d="M556.2,311.1 Q556.2,329.6 562.0,357.4" fill="none" stroke="#0e7d74" stroke-width="1.08" stroke-linecap="round" opacity="0.56"/><path d="M545.7,343.5 Q547.2,354.0 558.2,369.7" fill="none" stroke="#0e7d74" stroke-width="1.08" stroke-linecap="round" opacity="0.56"/><path d="M586.2,248.6 C610.3,271.3 618.9,312.2 575.7,339.4" fill="none" stroke="#111111" stroke-width="1.49" stroke-linecap="round" opacity="0.78"/><path d="M581.0,294.0 Q580.8,307.7 592.7,328.2" fill="none" stroke="#111111" stroke-width="0.90" stroke-linecap="round" opacity="0.63"/><path d="M578.6,314.0 Q592.1,332.9 596.3,361.3" fill="none" stroke="#111111" stroke-width="0.90" stroke-linecap="round" opacity="0.63"/><path d="M600.5,243.5 C562.9,273.9 608.2,328.7 591.9,365.2" fill="none" stroke="#111111" stroke-width="1.83" stroke-linecap="round" opacity="0.77"/><path d="M596.2,304.3 Q582.9,320.5 575.7,344.6" fill="none" stroke="#111111" stroke-width="1.10" stroke-linecap="round" opacity="0.61"/><path d="M594.3,331.1 Q591.0,344.9 574.0,365.5" fill="none" stroke="#111111" stroke-width="1.10" stroke-linecap="round" opacity="0.61"/><path d="M609.3,241.5 C630.7,275.4 584.1,336.3 611.3,377.0" fill="none" stroke="#0e7d74" stroke-width="1.32" stroke-linecap="round" opacity="0.53"/><path d="M610.3,309.2 Q591.2,327.6 576.6,355.2" fill="none" stroke="#0e7d74" stroke-width="0.79" stroke-linecap="round" opacity="0.43"/><path d="M610.8,339.0 Q601.0,361.2 580.0,394.3" fill="none" stroke="#0e7d74" stroke-width="0.79" stroke-linecap="round" opacity="0.43"/><path d="M609.1,245.2 C659.1,260.1 633.4,286.9 629.6,304.8" fill="none" stroke="#111111" stroke-width="1.95" stroke-linecap="round" opacity="0.63"/><path d="M619.3,275.0 Q634.6,296.5 644.5,328.8" fill="none" stroke="#111111" stroke-width="1.17" stroke-linecap="round" opacity="0.51"/><path d="M623.8,288.1 Q631.1,298.5 650.3,314.1" fill="none" stroke="#111111" stroke-width="1.17" stroke-linecap="round" opacity="0.51"/><path d="M615.0,246.1 C609.5,269.4 681.9,311.5 671.8,339.6" fill="none" stroke="#111111" stroke-width="1.57" stroke-linecap="round" opacity="0.57"/><path d="M643.4,292.8 Q651.8,315.0 667.7,348.3" fill="none" stroke="#111111" stroke-width="0.94" stroke-linecap="round" opacity="0.46"/><path d="M655.9,313.4 Q654.1,331.7 650.2,359.1" fill="none" stroke="#111111" stroke-width="0.94" stroke-linecap="round" opacity="0.46"/><path d="M625.6,232.4 C621.4,255.1 704.4,295.9 717.1,323.1" fill="none" stroke="#0e7d74" stroke-width="1.58" stroke-linecap="round" opacity="0.54"/><path d="M671.4,277.8 Q676.6,295.2 691.4,321.4" fill="none" stroke="#0e7d74" stroke-width="0.95" stroke-linecap="round" opacity="0.43"/><path d="M691.5,297.7 Q709.3,311.6 724.6,332.5" fill="none" stroke="#0e7d74" stroke-width="0.95" stroke-linecap="round" opacity="0.43"/><path d="M627.9,245.4 C694.4,267.3 695.8,306.7 740.1,333.0" fill="none" stroke="#111111" stroke-width="1.81" stroke-linecap="round" opacity="0.65"/><path d="M684.0,289.2 Q690.1,306.3 694.8,331.8" fill="none" stroke="#111111" stroke-width="1.08" stroke-linecap="round" opacity="0.52"/><path d="M708.7,308.5 Q726.3,320.1 745.0,337.4" fill="none" stroke="#111111" stroke-width="1.08" stroke-linecap="round" opacity="0.52"/><path d="M639.3,244.8 C711.7,280.7 758.8,345.5 788.3,388.6" fill="none" stroke="#111111" stroke-width="1.41" stroke-linecap="round" opacity="0.78"/><path d="M713.8,316.7 Q735.4,335.5 754.1,363.8" fill="none" stroke="#111111" stroke-width="0.84" stroke-linecap="round" opacity="0.62"/><path d="M746.6,348.3 Q758.4,350.7 778.4,354.3" fill="none" stroke="#111111" stroke-width="0.84" stroke-linecap="round" opacity="0.62"/><path d="M641.9,237.8 C728.5,270.6 767.7,329.8 798.5,369.2" fill="none" stroke="#0e7d74" stroke-width="1.77" stroke-linecap="round" opacity="0.54"/><path d="M720.2,303.5 Q734.0,314.3 739.4,330.6" fill="none" stroke="#0e7d74" stroke-width="1.06" stroke-linecap="round" opacity="0.43"/><path d="M754.7,332.4 Q763.7,346.7 759.1,368.1" fill="none" stroke="#0e7d74" stroke-width="1.06" stroke-linecap="round" opacity="0.43"/><path d="M653.1,243.7 C707.8,278.9 788.6,342.4 888.0,384.7" fill="none" stroke="#111111" stroke-width="1.47" stroke-linecap="round" opacity="0.63"/><path d="M770.6,314.2 Q789.9,315.0 810.0,316.3" fill="none" stroke="#111111" stroke-width="0.88" stroke-linecap="round" opacity="0.50"/><path d="M822.2,345.2 Q840.0,340.9 868.9,334.4" fill="none" stroke="#111111" stroke-width="0.88" stroke-linecap="round" opacity="0.50"/><path d="M655.8,240.0 C710.4,270.3 841.4,325.0 900.5,361.5" fill="none" stroke="#111111" stroke-width="1.98" stroke-linecap="round" opacity="0.73"/><path d="M778.2,300.7 Q785.6,298.2 815.2,294.3" fill="none" stroke="#111111" stroke-width="1.19" stroke-linecap="round" opacity="0.58"/><path d="M832.0,327.5 Q835.4,339.4 855.2,357.2" fill="none" stroke="#111111" stroke-width="1.19" stroke-linecap="round" opacity="0.58"/><path d="M667.9,253.9 C740.6,276.3 868.7,316.7 946.7,343.6" fill="none" stroke="#0e7d74" stroke-width="1.76" stroke-linecap="round" opacity="0.64"/><path d="M807.3,298.7 Q821.6,294.7 835.6,288.6" fill="none" stroke="#0e7d74" stroke-width="1.06" stroke-linecap="round" opacity="0.51"/><path d="M868.6,318.5 Q887.7,320.8 898.7,324.3" fill="none" stroke="#0e7d74" stroke-width="1.06" stroke-linecap="round" opacity="0.51"/><path d="M677.6,251.2 C747.1,286.9 862.3,351.1 937.1,393.8" fill="none" stroke="#111111" stroke-width="1.47" stroke-linecap="round" opacity="0.61"/><path d="M807.4,322.5 Q824.1,336.1 858.4,356.6" fill="none" stroke="#111111" stroke-width="0.88" stroke-linecap="round" opacity="0.49"/><path d="M864.4,353.9 Q879.0,352.2 911.2,349.7" fill="none" stroke="#111111" stroke-width="0.88" stroke-linecap="round" opacity="0.49"/><path d="M678.6,235.9 C778.6,262.9 837.6,311.5 969.6,343.9" fill="none" stroke="#111111" stroke-width="1.43" stroke-linecap="round" opacity="0.72"/><path d="M824.1,289.9 Q834.5,294.7 856.3,301.9" fill="none" stroke="#111111" stroke-width="0.86" stroke-linecap="round" opacity="0.57"/><path d="M888.1,313.7 Q893.9,307.7 922.0,298.7" fill="none" stroke="#111111" stroke-width="0.86" stroke-linecap="round" opacity="0.57"/><path d="M693.3,245.2 C853.5,276.0 853.3,331.3 1012.4,368.2" fill="none" stroke="#0e7d74" stroke-width="1.55" stroke-linecap="round" opacity="0.70"/><path d="M852.9,306.7 Q872.9,314.9 907.2,327.1" fill="none" stroke="#0e7d74" stroke-width="0.93" stroke-linecap="round" opacity="0.56"/><path d="M923.1,333.7 Q950.4,341.5 972.1,353.2" fill="none" stroke="#0e7d74" stroke-width="0.93" stroke-linecap="round" opacity="0.56"/><path d="M695.9,252.0 C829.3,284.8 912.9,344.0 1077.9,383.5" fill="none" stroke="#111111" stroke-width="1.30" stroke-linecap="round" opacity="0.47"/><path d="M886.9,317.7 Q903.5,310.1 938.2,298.7" fill="none" stroke="#111111" stroke-width="0.78" stroke-linecap="round" opacity="0.38"/><path d="M970.9,346.6 Q988.6,344.1 1001.3,340.3" fill="none" stroke="#111111" stroke-width="0.78" stroke-linecap="round" opacity="0.38"/><path d="M709.4,248.1 C839.5,274.7 932.7,322.5 1086.9,354.4" fill="none" stroke="#111111" stroke-width="1.56" stroke-linecap="round" opacity="0.51"/><path d="M898.2,301.2 Q930.7,298.6 960.5,294.7" fill="none" stroke="#111111" stroke-width="0.93" stroke-linecap="round" opacity="0.40"/><path d="M981.2,324.6 Q1002.5,329.7 1015.8,337.2" fill="none" stroke="#111111" stroke-width="0.93" stroke-linecap="round" opacity="0.40"/></g><path d="M498,250 C470,205 480,150 520,120 C548,99 585,92 610,95 C660,101 700,140 706,190 C710,224 698,244 690,252 C660,262 540,262 498,250 Z" fill="url(#body)" stroke="#111111" stroke-width="2" opacity="0.9"/><path d="M498,250 C470,205 480,150 520,120 C548,99 585,92 610,95 C660,101 700,140 706,190 C710,224 698,244 690,252 C660,262 540,262 498,250 Z" fill="url(#hatch)" opacity="0.22"/><g stroke="#111111" stroke-width="1.3" fill="none" opacity="0.72"><circle cx="498.2" cy="153.4" r="7.6"/><circle cx="516.4" cy="161.4" r="8.2"/><circle cx="493.1" cy="143.4" r="8.2"/><circle cx="514.2" cy="157.5" r="4.5"/><circle cx="499.9" cy="134.0" r="6.4"/><circle cx="515.5" cy="143.2" r="5.0"/><circle cx="502.0" cy="133.8" r="7.4"/><circle cx="514.8" cy="145.8" r="4.6"/><circle cx="510.9" cy="119.3" r="4.0"/><circle cx="526.6" cy="134.9" r="5.0"/><circle cx="521.5" cy="120.6" r="5.3"/><circle cx="533.4" cy="133.5" r="7.1"/><circle cx="522.0" cy="115.7" r="7.1"/><circle cx="540.5" cy="132.8" r="5.3"/><circle cx="533.0" cy="103.0" r="4.7"/><circle cx="539.6" cy="123.1" r="6.7"/><circle cx="539.8" cy="103.8" r="5.5"/><circle cx="550.9" cy="125.0" r="6.2"/><circle cx="564.6" cy="114.8" r="8.4"/><circle cx="576.3" cy="112.3" r="7.5"/><circle cx="578.6" cy="111.2" r="4.8"/><circle cx="597.0" cy="119.4" r="8.2"/><circle cx="605.8" cy="117.8" r="4.5"/><circle cx="620.1" cy="111.1" r="8.3"/><circle cx="628.3" cy="121.3" r="5.5"/><circle cx="635.6" cy="117.4" r="4.8"/><circle cx="649.0" cy="126.8" r="4.7"/><circle cx="661.1" cy="111.2" r="6.4"/><circle cx="655.2" cy="122.5" r="6.7"/><circle cx="678.3" cy="110.9" r="5.9"/><circle cx="659.7" cy="133.0" r="4.1"/><circle cx="683.3" cy="120.3" r="4.6"/><circle cx="673.5" cy="137.6" r="6.8"/><circle cx="693.1" cy="119.1" r="6.0"/><circle cx="673.6" cy="141.3" r="5.3"/><circle cx="695.3" cy="134.6" r="7.8"/><circle cx="686.6" cy="142.3" r="6.2"/><circle cx="702.1" cy="136.4" r="5.3"/><circle cx="684.3" cy="144.5" r="5.7"/><circle cx="707.1" cy="148.3" r="6.8"/><circle cx="687.3" cy="151.9" r="4.4"/><circle cx="700.7" cy="153.8" r="7.9"/><circle cx="686.6" cy="161.9" r="7.5"/></g><g fill="#0e7d74" opacity="0.45"><circle cx="597.4" cy="217.2" r="2.2"/><circle cx="599.5" cy="213.5" r="1.8"/><circle cx="554.5" cy="213.8" r="1.8"/><circle cx="651.9" cy="184.6" r="1.4"/><circle cx="539.5" cy="234.7" r="1.9"/><circle cx="531.7" cy="246.8" r="2.3"/><circle cx="629.6" cy="221.1" r="1.2"/><circle cx="527.4" cy="215.0" r="1.1"/><circle cx="555.4" cy="194.9" r="1.0"/><circle cx="599.2" cy="208.8" r="2.1"/><circle cx="608.1" cy="222.8" r="1.6"/><circle cx="631.0" cy="210.0" r="1.4"/><circle cx="684.6" cy="247.7" r="2.1"/><circle cx="638.2" cy="200.1" r="1.3"/><circle cx="571.2" cy="182.9" r="2.0"/><circle cx="589.1" cy="237.3" r="1.5"/><circle cx="678.3" cy="237.3" r="1.0"/><circle cx="558.6" cy="241.7" r="1.6"/><circle cx="681.9" cy="205.8" r="1.1"/><circle cx="625.7" cy="232.5" r="1.4"/><circle cx="538.9" cy="201.3" r="2.3"/><circle cx="646.3" cy="186.3" r="1.3"/><circle cx="541.2" cy="182.2" r="2.0"/><circle cx="553.4" cy="217.2" r="1.6"/><circle cx="555.5" cy="229.2" r="1.2"/><circle cx="628.0" cy="186.2" r="1.5"/><circle cx="559.1" cy="196.9" r="2.3"/><circle cx="653.5" cy="199.3" r="2.2"/></g><g transform="translate(250,120) scale(1.5)" opacity="0.85"><circle r="16" fill="#0e7d74" fill-opacity="0.06"/><circle r="16" fill="none" stroke="#0e7d74" stroke-width="2"/><circle r="10.5" fill="none" stroke="#0e7d74" stroke-width="1.2" opacity="0.6"/><circle r="2" fill="#0e7d74"/></g><g transform="translate(930,150) scale(1.1)" opacity="0.7"><circle r="16" fill="#0e7d74" fill-opacity="0.06"/><circle r="16" fill="none" stroke="#0e7d74" stroke-width="2"/><circle r="10.5" fill="none" stroke="#0e7d74" stroke-width="1.2" opacity="0.6"/><circle r="2" fill="#0e7d74"/></g><g transform="translate(1000,250) scale(0.8)" opacity="0.55"><circle r="16" fill="#0e7d74" fill-opacity="0.06"/><circle r="16" fill="none" stroke="#0e7d74" stroke-width="2"/><circle r="10.5" fill="none" stroke="#0e7d74" stroke-width="1.2" opacity="0.6"/><circle r="2" fill="#0e7d74"/></g><g transform="translate(190,300) scale(0.7)" opacity="0.5"><circle r="16" fill="#0e7d74" fill-opacity="0.06"/><circle r="16" fill="none" stroke="#0e7d74" stroke-width="2"/><circle r="10.5" fill="none" stroke="#0e7d74" stroke-width="1.2" opacity="0.6"/><circle r="2" fill="#0e7d74"/></g></svg>