<svg xmlns="http://www.w3.org/2000/svg" viewBox="0 0 200 200" width="200" height="200">
<g><circle cx="100" cy="100" r="84" fill="#0e7d74" fill-opacity="0.05"></circle><circle cx="100" cy="100" r="90" fill="none" stroke="#0e7d74" stroke-width="4"></circle><circle cx="100" cy="100" r="76" fill="none" stroke="#0e7d74" stroke-width="2.4" opacity="0.55"></circle><circle cx="100" cy="100" r="97" fill="none" stroke="#0e7d74" stroke-width="1.4" opacity="0.4" stroke-dasharray="2.5 5.5"></circle><g transform="rotate(-34 96 92)"><line x1="70" y1="92" x2="70" y2="92" stroke="#111" stroke-width="1.3" opacity="0.45"></line><line x1="78.67" y1="102.27" x2="78.67" y2="81.73" stroke="#111" stroke-width="1.3" opacity="0.45"></line><line x1="87.33" y1="84.64" x2="87.33" y2="99.36" stroke="#111" stroke-width="1.3" opacity="0.45"></line><line x1="96" y1="87.01" x2="96" y2="96.99" stroke="#111" stroke-width="1.3" opacity="0.45"></line><line x1="104.67" y1="102.94" x2="104.67" y2="81.06" stroke="#111" stroke-width="1.3" opacity="0.45"></line><line x1="113.33" y1="89.15" x2="113.33" y2="94.85" stroke="#111" stroke-width="1.3" opacity="0.45"></line><line x1="122" y1="83.1" x2="122" y2="100.9" stroke="#111" stroke-width="1.3" opacity="0.45"></line><path d="M70 92 L71.3 95.15 L72.6 98.04 L73.9 100.42 L75.2 102.1 L76.5 102.92 L77.8 102.84 L79.1 101.84 L80.4 100.02 L81.7 97.52 L83 94.57 L84.3 91.4 L85.6 88.27 L86.9 85.46 L88.2 83.2 L89.5 81.68 L90.8 81.02 L92.1 81.28 L93.4 82.45 L94.7 84.41 L96 87.01 L97.3 90.02 L98.6 93.21 L99.9 96.29 L101.2 99.01 L102.5 101.15 L103.8 102.51 L105.1 103 L106.4 102.56 L107.7 101.24 L109 99.14 L110.3 96.45 L111.6 93.38 L112.9 90.19 L114.2 87.16 L115.5 84.53 L116.8 82.53 L118.1 81.32 L119.4 81.01 L120.7 81.62 L122 83.1" fill="none" stroke="#111" stroke-width="2.6" stroke-linecap="round"></path><path d="M70 92 L71.3 88.85 L72.6 85.96 L73.9 83.58 L75.2 81.9 L76.5 81.08 L77.8 81.16 L79.1 82.16 L80.4 83.98 L81.7 86.48 L83 89.43 L84.3 92.6 L85.6 95.73 L86.9 98.54 L88.2 100.8 L89.5 102.32 L90.8 102.98 L92.1 102.72 L93.4 101.55 L94.7 99.59 L96 96.99 L97.3 93.98 L98.6 90.79 L99.9 87.71 L101.2 84.99 L102.5 82.85 L103.8 81.49 L105.1 81 L106.4 81.44 L107.7 82.76 L109 84.86 L110.3 87.55 L111.6 90.62 L112.9 93.81 L114.2 96.84 L115.5 99.47 L116.8 101.47 L118.1 102.68 L119.4 102.99 L120.7 102.38 L122 100.9" fill="none" stroke="#111" stroke-width="2.6" stroke-linecap="round"></path></g><g transform="rotate(22 116 122)"><line x1="101" y1="122" x2="101" y2="122" stroke="#111" stroke-width="1.3" opacity="0.45"></line><line x1="108.5" y1="128.07" x2="108.5" y2="115.93" stroke="#111" stroke-width="1.3" opacity="0.45"></line><line x1="116" y1="114.87" x2="116" y2="129.13" stroke="#111" stroke-width="1.3" opacity="0.45"></line><line x1="123.5" y1="124.32" x2="123.5" y2="119.68" stroke="#111" stroke-width="1.3" opacity="0.45"></line><line x1="131" y1="126.41" x2="131" y2="117.59" stroke="#111" stroke-width="1.3" opacity="0.45"></line><path d="M101 122 L101.75 123.64 L102.5 125.19 L103.25 126.6 L104 127.78 L104.75 128.68 L105.5 129.26 L106.25 129.5 L107 129.37 L107.75 128.88 L108.5 128.07 L109.25 126.96 L110 125.61 L110.75 124.09 L111.5 122.47 L112.25 120.83 L113 119.24 L113.75 117.78 L114.5 116.53 L115.25 115.54 L116 114.87 L116.75 114.53 L117.5 114.56 L118.25 114.94 L119 115.67 L119.75 116.7 L120.5 117.98 L121.25 119.46 L122 121.06 L122.75 122.71 L123.5 124.32 L124.25 125.82 L125 127.13 L125.75 128.2 L126.5 128.97 L127.25 129.41 L128 129.49 L128.75 129.2 L129.5 128.57 L130.25 127.63 L131 126.41" fill="none" stroke="#111" stroke-width="2.6" stroke-linecap="round"></path><path d="M101 122 L101.75 120.36 L102.5 118.81 L103.25 117.4 L104 116.22 L104.75 115.32 L105.5 114.74 L106.25 114.5 L107 114.63 L107.75 115.12 L108.5 115.93 L109.25 117.04 L110 118.39 L110.75 119.91 L111.5 121.53 L112.25 123.17 L113 124.76 L113.75 126.22 L114.5 127.47 L115.25 128.46 L116 129.13 L116.75 129.47 L117.5 129.44 L118.25 129.06 L119 128.33 L119.75 127.3 L120.5 126.02 L121.25 124.54 L122 122.94 L122.75 121.29 L123.5 119.68 L124.25 118.18 L125 116.87 L125.75 115.8 L126.5 115.03 L127.25 114.59 L128 114.51 L128.75 114.8 L129.5 115.43 L130.25 116.37 L131 117.59" fill="none" stroke="#111" stroke-width="2.6" stroke-linecap="round"></path></g><circle cx="74" cy="84" r="3" fill="#0e7d74" opacity="0.85"></circle><circle cx="128" cy="82" r="2.6" fill="#0e7d74" opacity="0.85"></circle><circle cx="70" cy="116" r="2.4" fill="#0e7d74" opacity="0.85"></circle><circle cx="132" cy="112" r="3" fill="#0e7d74" opacity="0.85"></circle><circle cx="98" cy="132" r="2.6" fill="#0e7d74" opacity="0.85"></circle><line x1="122" y1="100" x2="130" y2="100" stroke="#0e7d74" stroke-width="2" stroke-linecap="round"></line><line x1="126" y1="96" x2="126" y2="104" stroke="#0e7d74" stroke-width="2" stroke-linecap="round"></line><line x1="72" y1="108" x2="80" y2="108" stroke="#0e7d74" stroke-width="2" stroke-linecap="round"></line><line x1="76" y1="104" x2="76" y2="112" stroke="#0e7d74" stroke-width="2" stroke-linecap="round"></line><path d="M118 65 L125.79 69.5 L125.79 78.5 L118 83 L110.21 78.5 L110.21 69.5 Z" fill="none" stroke="#0e7d74" stroke-width="1.8" stroke-linejoin="round"></path><line x1="100" y1="17" x2="100" y2="3" stroke="#0e7d74" stroke-width="3" stroke-linecap="round"></line><line x1="183" y1="100" x2="197" y2="100" stroke="#0e7d74" stroke-width="3" stroke-linecap="round"></line><line x1="100" y1="183" x2="100" y2="197" stroke="#0e7d74" stroke-width="3" stroke-linecap="round"></line><line x1="17" y1="100" x2="3" y2="100" stroke="#0e7d74" stroke-width="3" stroke-linecap="round"></line></g>
</svg>